<mxfile host="app.diagrams.net" modified="2024-03-03T10:59:14.702Z" agent="Mozilla/5.0 (Windows NT 10.0; Win64; x64) AppleWebKit/537.36 (KHTML, like Gecko) Chrome/122.0.0.0 Safari/537.36" etag="hwWsWJbJ7ILpbjh_w6wB" version="23.1.8" type="google">
  <diagram name="‫עמוד-1‬" id="OL9Yi9i0Q1bhjFTFNfm3">
    <mxGraphModel dx="1235" dy="614" grid="1" gridSize="10" guides="1" tooltips="1" connect="1" arrows="1" fold="1" page="1" pageScale="1" pageWidth="827" pageHeight="1169" math="0" shadow="0">
      <root>
        <mxCell id="0" />
        <mxCell id="1" parent="0" />
        <mxCell id="jhwzMtCy7O4o018dW8v7-4" value="" style="edgeStyle=orthogonalEdgeStyle;rounded=0;orthogonalLoop=1;jettySize=auto;html=1;" edge="1" parent="1" source="jhwzMtCy7O4o018dW8v7-1" target="jhwzMtCy7O4o018dW8v7-3">
          <mxGeometry relative="1" as="geometry" />
        </mxCell>
        <mxCell id="jhwzMtCy7O4o018dW8v7-1" value="start" style="ellipse;whiteSpace=wrap;html=1;fillColor=#d5e8d4;strokeColor=#82b366;" vertex="1" parent="1">
          <mxGeometry x="190" y="50" width="120" height="80" as="geometry" />
        </mxCell>
        <mxCell id="jhwzMtCy7O4o018dW8v7-2" value="" style="verticalLabelPosition=bottom;verticalAlign=top;html=1;shape=card;whiteSpace=wrap;size=20;arcSize=12;fillColor=#dae8fc;strokeColor=#6c8ebf;" vertex="1" parent="1">
          <mxGeometry x="200" y="160" width="100" height="60" as="geometry" />
        </mxCell>
        <mxCell id="jhwzMtCy7O4o018dW8v7-7" value="" style="edgeStyle=orthogonalEdgeStyle;rounded=0;orthogonalLoop=1;jettySize=auto;html=1;" edge="1" parent="1" source="jhwzMtCy7O4o018dW8v7-3" target="jhwzMtCy7O4o018dW8v7-6">
          <mxGeometry relative="1" as="geometry" />
        </mxCell>
        <mxCell id="jhwzMtCy7O4o018dW8v7-3" value="name" style="text;html=1;align=center;verticalAlign=middle;whiteSpace=wrap;rounded=0;" vertex="1" parent="1">
          <mxGeometry x="220" y="175" width="60" height="30" as="geometry" />
        </mxCell>
        <mxCell id="jhwzMtCy7O4o018dW8v7-5" value="" style="verticalLabelPosition=bottom;verticalAlign=top;html=1;shape=card;whiteSpace=wrap;size=20;arcSize=12;fillColor=#dae8fc;strokeColor=#6c8ebf;" vertex="1" parent="1">
          <mxGeometry x="200" y="240" width="100" height="60" as="geometry" />
        </mxCell>
        <mxCell id="jhwzMtCy7O4o018dW8v7-9" value="" style="edgeStyle=orthogonalEdgeStyle;rounded=0;orthogonalLoop=1;jettySize=auto;html=1;" edge="1" parent="1" source="jhwzMtCy7O4o018dW8v7-6" target="jhwzMtCy7O4o018dW8v7-8">
          <mxGeometry relative="1" as="geometry" />
        </mxCell>
        <mxCell id="jhwzMtCy7O4o018dW8v7-6" value="age" style="text;html=1;align=center;verticalAlign=middle;whiteSpace=wrap;rounded=0;" vertex="1" parent="1">
          <mxGeometry x="220" y="255" width="60" height="30" as="geometry" />
        </mxCell>
        <mxCell id="jhwzMtCy7O4o018dW8v7-11" value="" style="edgeStyle=orthogonalEdgeStyle;rounded=0;orthogonalLoop=1;jettySize=auto;html=1;" edge="1" parent="1" source="jhwzMtCy7O4o018dW8v7-8" target="jhwzMtCy7O4o018dW8v7-10">
          <mxGeometry relative="1" as="geometry" />
        </mxCell>
        <mxCell id="jhwzMtCy7O4o018dW8v7-8" value="&quot;my nam is:&quot; + name +&lt;br&gt;&quot;and my age is&quot; + age" style="shape=document;whiteSpace=wrap;html=1;boundedLbl=1;fillColor=#ffe6cc;strokeColor=#d79b00;" vertex="1" parent="1">
          <mxGeometry x="160" y="360" width="180" height="80" as="geometry" />
        </mxCell>
        <mxCell id="jhwzMtCy7O4o018dW8v7-10" value="stop" style="ellipse;whiteSpace=wrap;html=1;fillColor=#f8cecc;strokeColor=#b85450;" vertex="1" parent="1">
          <mxGeometry x="190" y="460" width="120" height="80" as="geometry" />
        </mxCell>
        <mxCell id="jhwzMtCy7O4o018dW8v7-12" value="26" style="rounded=1;whiteSpace=wrap;html=1;fillColor=#fff2cc;strokeColor=#d6b656;" vertex="1" parent="1">
          <mxGeometry x="350" y="240" width="120" height="60" as="geometry" />
        </mxCell>
        <mxCell id="jhwzMtCy7O4o018dW8v7-13" value="michal" style="rounded=1;whiteSpace=wrap;html=1;fillColor=#fff2cc;strokeColor=#d6b656;" vertex="1" parent="1">
          <mxGeometry x="350" y="160" width="120" height="60" as="geometry" />
        </mxCell>
        <mxCell id="jhwzMtCy7O4o018dW8v7-14" value="my name is michal and my age is 26" style="rounded=1;whiteSpace=wrap;html=1;fillColor=#fff2cc;strokeColor=#d6b656;" vertex="1" parent="1">
          <mxGeometry x="370" y="360" width="250" height="60" as="geometry" />
        </mxCell>
        <mxCell id="jhwzMtCy7O4o018dW8v7-15" value="" style="edgeStyle=orthogonalEdgeStyle;rounded=0;orthogonalLoop=1;jettySize=auto;html=1;" edge="1" parent="1" source="jhwzMtCy7O4o018dW8v7-16" target="jhwzMtCy7O4o018dW8v7-19">
          <mxGeometry relative="1" as="geometry" />
        </mxCell>
        <mxCell id="jhwzMtCy7O4o018dW8v7-16" value="start" style="ellipse;whiteSpace=wrap;html=1;fillColor=#d5e8d4;strokeColor=#82b366;" vertex="1" parent="1">
          <mxGeometry x="515" y="460" width="120" height="80" as="geometry" />
        </mxCell>
        <mxCell id="jhwzMtCy7O4o018dW8v7-17" value="" style="verticalLabelPosition=bottom;verticalAlign=top;html=1;shape=card;whiteSpace=wrap;size=20;arcSize=12;fillColor=#dae8fc;strokeColor=#6c8ebf;" vertex="1" parent="1">
          <mxGeometry x="525" y="570" width="100" height="60" as="geometry" />
        </mxCell>
        <mxCell id="jhwzMtCy7O4o018dW8v7-18" value="" style="edgeStyle=orthogonalEdgeStyle;rounded=0;orthogonalLoop=1;jettySize=auto;html=1;" edge="1" parent="1" source="jhwzMtCy7O4o018dW8v7-19" target="jhwzMtCy7O4o018dW8v7-22">
          <mxGeometry relative="1" as="geometry" />
        </mxCell>
        <mxCell id="jhwzMtCy7O4o018dW8v7-19" value="price_a" style="text;html=1;align=center;verticalAlign=middle;whiteSpace=wrap;rounded=0;" vertex="1" parent="1">
          <mxGeometry x="545" y="585" width="60" height="30" as="geometry" />
        </mxCell>
        <mxCell id="jhwzMtCy7O4o018dW8v7-20" value="" style="verticalLabelPosition=bottom;verticalAlign=top;html=1;shape=card;whiteSpace=wrap;size=20;arcSize=12;fillColor=#dae8fc;strokeColor=#6c8ebf;" vertex="1" parent="1">
          <mxGeometry x="525" y="650" width="100" height="60" as="geometry" />
        </mxCell>
        <mxCell id="jhwzMtCy7O4o018dW8v7-29" value="" style="edgeStyle=orthogonalEdgeStyle;rounded=0;orthogonalLoop=1;jettySize=auto;html=1;" edge="1" parent="1" source="jhwzMtCy7O4o018dW8v7-22" target="jhwzMtCy7O4o018dW8v7-26">
          <mxGeometry relative="1" as="geometry" />
        </mxCell>
        <mxCell id="jhwzMtCy7O4o018dW8v7-22" value="price_b" style="text;html=1;align=center;verticalAlign=middle;whiteSpace=wrap;rounded=0;" vertex="1" parent="1">
          <mxGeometry x="545" y="665" width="60" height="30" as="geometry" />
        </mxCell>
        <mxCell id="jhwzMtCy7O4o018dW8v7-25" value="stop" style="ellipse;whiteSpace=wrap;html=1;fillColor=#f8cecc;strokeColor=#b85450;" vertex="1" parent="1">
          <mxGeometry x="515" y="1080" width="120" height="80" as="geometry" />
        </mxCell>
        <mxCell id="jhwzMtCy7O4o018dW8v7-30" value="" style="edgeStyle=orthogonalEdgeStyle;rounded=0;orthogonalLoop=1;jettySize=auto;html=1;" edge="1" parent="1" source="jhwzMtCy7O4o018dW8v7-26" target="jhwzMtCy7O4o018dW8v7-27">
          <mxGeometry relative="1" as="geometry" />
        </mxCell>
        <mxCell id="jhwzMtCy7O4o018dW8v7-26" value="sum= price_a + price_b" style="rounded=1;whiteSpace=wrap;html=1;fillColor=#e1d5e7;strokeColor=#9673a6;" vertex="1" parent="1">
          <mxGeometry x="440" y="750" width="270" height="60" as="geometry" />
        </mxCell>
        <mxCell id="jhwzMtCy7O4o018dW8v7-31" value="" style="edgeStyle=orthogonalEdgeStyle;rounded=0;orthogonalLoop=1;jettySize=auto;html=1;" edge="1" parent="1" source="jhwzMtCy7O4o018dW8v7-27" target="jhwzMtCy7O4o018dW8v7-28">
          <mxGeometry relative="1" as="geometry" />
        </mxCell>
        <mxCell id="jhwzMtCy7O4o018dW8v7-27" value="memutza= sum/2" style="rounded=1;whiteSpace=wrap;html=1;fillColor=#e1d5e7;strokeColor=#9673a6;" vertex="1" parent="1">
          <mxGeometry x="440" y="860" width="270" height="60" as="geometry" />
        </mxCell>
        <mxCell id="jhwzMtCy7O4o018dW8v7-32" value="" style="edgeStyle=orthogonalEdgeStyle;rounded=0;orthogonalLoop=1;jettySize=auto;html=1;" edge="1" parent="1" source="jhwzMtCy7O4o018dW8v7-28" target="jhwzMtCy7O4o018dW8v7-25">
          <mxGeometry relative="1" as="geometry" />
        </mxCell>
        <mxCell id="jhwzMtCy7O4o018dW8v7-28" value="&quot;the average is&quot; + memutza" style="shape=document;whiteSpace=wrap;html=1;boundedLbl=1;fillColor=#ffe6cc;strokeColor=#d79b00;" vertex="1" parent="1">
          <mxGeometry x="505" y="960" width="120" height="80" as="geometry" />
        </mxCell>
      </root>
    </mxGraphModel>
  </diagram>
</mxfile>
